<svg width="143" height="115" viewBox="0 0 143 115" fill="none" xmlns="http://www.w3.org/2000/svg">
<path d="M18.8654 111.373L11.1306 41.8838L24.5251 4.18839H118.286L131.681 41.8838L123.946 111.373H18.8654Z" fill="#C7791E"/>
<path d="M71.5002 96.9575L53.9043 75.2146H89.0733L71.5002 96.9575Z" fill="#FFAA47"/>
<path d="M74.3728 70.866C74.3728 77.2704 69.228 79.5632 62.8817 79.5632C56.5354 79.5632 51.3906 74.3713 51.3906 67.9669C51.3906 61.5625 56.5354 56.3707 62.8817 56.3707C69.228 56.3707 74.3728 62.1688 74.3728 70.866Z" fill="#FFAA47"/>
<path d="M91.6094 67.9669C91.6094 74.3713 86.4646 79.5632 80.1183 79.5632C73.772 79.5632 68.6272 77.2704 68.6272 70.866C68.6272 62.1688 73.772 56.3707 80.1183 56.3707C86.4646 56.3707 91.6094 61.5625 91.6094 67.9669Z" fill="#FFAA47"/>
<path d="M75.2705 70.3224C75.2705 72.4239 73.5824 74.1274 71.5 74.1274C69.4176 74.1274 67.7295 72.4239 67.7295 70.3224C67.7295 68.221 69.4176 66.5174 71.5 66.5174C73.5824 66.5174 75.2705 68.221 75.2705 70.3224Z" fill="#565862"/>
<path d="M70.2432 71.5907H72.7568L75.2705 84.2741H67.7295L70.2432 71.5907Z" fill="#565862"/>
<path d="M30.1234 44.9685L34.5665 44.4861L41.389 108.47L36.9459 108.953L30.1234 44.9685Z" fill="#FFAA47"/>
<path d="M0 41.7143C0 39.8463 1.50055 38.3321 3.35156 38.3321H139.648C141.499 38.3321 143 39.8463 143 41.7143C143 43.5822 141.499 45.0965 139.648 45.0965H3.35156C1.50055 45.0965 0 43.5822 0 41.7143Z" fill="#FFAA47"/>
<path d="M15.6406 108.232H127.359V114.996H15.6406V108.232Z" fill="#FFAA47"/>
<path d="M7.65803 43.491L15.6477 114.991L22.3086 114.233L14.3189 42.733L7.65803 43.491Z" fill="#FFAA47"/>
<path d="M135.307 43.5997L127.328 115L120.667 114.242L128.646 42.8417L135.307 43.5997Z" fill="#FFAA47"/>
<path d="M22.3438 0H120.656V6.76448H22.3438V0Z" fill="#FFAA47"/>
<path d="M8.42773 38.3424L22.3438 0L28.6379 2.32643L14.722 40.6688L8.42773 38.3424Z" fill="#FFAA47"/>
<path d="M134.651 38.5592L120.656 0L114.362 2.32643L128.357 40.8856L134.651 38.5592Z" fill="#FFAA47"/>
<path d="M31.2812 38.6933L35.5207 40.1191L46.8101 5.93552L42.5706 4.50965L31.2812 38.6933Z" fill="#FFAA47"/>
<path d="M111.607 38.6933L107.367 40.1191L96.0781 5.93552L100.318 4.50965L111.607 38.6933Z" fill="#FFAA47"/>
<path d="M112.889 44.9685L108.446 44.4861L101.624 108.47L106.067 108.953L112.889 44.9685Z" fill="#FFAA47"/>
</svg>
